<?xml version="1.0" encoding="UTF-8"?>
<svg xmlns="http://www.w3.org/2000/svg" xmlns:xlink="http://www.w3.org/1999/xlink" viewBox="0 0 1080 1350">
  <defs>
    <style>
      .cls-1, .cls-2 {
        fill: #0f3d2e;
      }

      .cls-3 {
        fill: #fff;
      }

      .cls-4 {
        letter-spacing: -.04em;
      }

      .cls-5 {
        letter-spacing: 0em;
      }

      .cls-2 {
        font-family: Arlon-UltraBold, Arlon;
        font-size: 89px;
        font-weight: 700;
      }

      .cls-6 {
        letter-spacing: 0em;
      }

      .cls-7 {
        fill: #ebebeb;
      }

      .cls-8 {
        fill: url(#linear-gradient);
      }
    </style>
    <linearGradient id="linear-gradient" x1="699.22" y1="612.93" x2="699.22" y2="512.71" gradientUnits="userSpaceOnUse">
      <stop offset="0" stop-color="#f16731"/>
      <stop offset="1" stop-color="#fbd739"/>
    </linearGradient>
  </defs>
  <rect class="cls-3" width="1080" height="1350"/>
  <g id="Layer_1" data-name="Layer 1">
    <rect class="cls-7" width="1080" height="1350"/>
    <g>
      <g>
        <path class="cls-1" d="M683.85,645.39l-.8-4.48c-.26.09-.52.17-.78.25l.22,2.7c.28.31.56.62.85.94l.51.58Z"/>
        <polygon class="cls-1" points="714.16 671.62 718.33 673.43 713.58 668.4 714.16 671.62"/>
        <g>
          <path class="cls-1" d="M615.89,649.82l-33.5-22.86-13.67-19.69v38.93s27.81,22.9,27.81,22.9l16.3-.05.65-6.45,3.36,5.3,1.43-.78c.01-.14.02-.28.03-.41.17-2.08.33-4.06.41-6-.1-.63-.2-1.41-.23-2.31-.38-.63-.73-1.33-1.05-2.09-.9-2.15-1.41-4.34-1.54-6.49Z"/>
          <path class="cls-1" d="M618.82,576.94c-2.72-3.16-9.08-4.45-12.17-2.24l-17.68,12.65-20.28-29.37c-2.87-4.16-6.53-7.44-11.27-9.36-4.32-1.75-7.17-4.58-10.06-8.1l-27.9-34.01c-1.78-2.17-5.32-3.62-7.68-3.55-2.89.08-5.13,2.09-6.97,4.59l-24.42,33.19c-4.05,2.89-9.49,3.93-12.09,7.81l-30.33,45.25-20.88-7.34c-4.62-1.62-8.74-.24-11.84,3.26l-27.46,31.05-21.46,23.37-37.28,40.16c-3.09,3.32-6.85,6.27-11.14,7.89l-54.29,20.48c-3.2,1.21-4.91,5.35-4.24,8.15.71,2.95,3.23,5.67,7.04,5.67l154.75.02.1,1.86-16.3,2.76c-1.5.25-3.78,1.87-4.23,3.12-.4,1.1.3,3.95,1.17,4.74,1.65,1.5,4.15,2.54,6.54,2.54h135.01c.88,0,3.27-1.74,2.67-2.28l-2.15-1.95-42.05-8.09c1.13-1.2,3.33-2.3,4.87-2.34l22.14-.45c1.16-.02,3.35-1.71,3.31-2.81-.04-.94-1.28-2.72-2.26-3.27l-51.55-29.25c-5.05-2.87-9.47-5.73-13.41-9.93l-10.42-11.11c-8.35-8.9-16.5-16.74-25.15-26.67l23.03,6.94c-10.87-15.64-22.05-30.24-27.19-49.21,7.27,1.65,13.74,4.61,19.73,9.76l96.32,82.87c-4.15-11.57-9.69-20.99-14.35-32.07l97.02,44.1c1.31-.17,2.63-.32,3.96-.42l.3-.02c.01-.17.04-.33.06-.5l-64.74-53.33-16.51-32.19-31.66-38.06,34.32,11.32-8.33-18.81c-7.2-16.27-13.34-32.47-15.99-51.01l22.47,29.01c6.86,8.85,13.45,6.72,18.97,14.68l35.28,50.81,28.9,19.72.08-2.51c-1.17-2.36-1.63-4.93-1.5-7.16l.55-9.03c.05-.78.16-1.7.41-2.7l-2.62-5.19c-2.66-6.92-5.22-13.21-6.53-21.19l11.56,13.66c.53-2.88,1.84-5.63,3.9-7.99,1.25-1.43,2.61-2.72,4.05-3.85l-12.12-14.07Z"/>
        </g>
        <path class="cls-8" d="M645.23,570.79c1.55-1.54,3.86-2.54,6.18-2.68l2.24-.13c1.54-.62,3.33-1.18,5.36-1.2l3.65-.04-.29.64c.8.08,1.56.35,2.17.76l.63.42c.72-2.85,2.31-5.38,4.72-7.45l.45-.39,5.39-1.15c.59-.13,1.12-.19,1.62-.19,1.64,0,2.6.67,3.12,1.03.02.02.05.03.07.05l1.22-.08.71,1.19c.13.21.63.59,1.03.9l2.3,1.77,1.65,1.53,4.33,6.93-3.51.83c-.15,1.54-.61,2.91-1.36,4.07l.44,1.64c.17.63.31,2-.27,3.07-.47.86-1.31,1.37-2.56,1.53l-1.11,1.57c3.02,1.85,5.36,4.98,6.77,9.12l5.01,14.81c.25.75.44,1.47.62,2.18.12.48.25.96.38,1.41.12-.48.25-.96.4-1.44l1.37-4.39c1.08-3.44,2.99-5.88,5.5-7.09l-.57-.87,1.87-1.8c.2-.2.39-.46.55-.75l-1.26-1.32c2.64-3.03,4.3-6.16,5.39-10.15,1.61-5.92,6.61-10.38,11.62-10.38.97,0,1.91.17,2.82.5,5.41,1.98,6.42,5.31,7.31,8.24.19.63.39,1.28.63,1.91.27.1.91.18,1.35.23,1.51.19,3.58.44,5.4,2.03,1.37,1.19,1.85,2.75,2.2,4.05l1.04,1.08c2.15,2.24,2.23,4.78,1.9,6.72,6.48-9,10.31-20.04,10.31-31.98,0-30.27-24.54-54.81-54.81-54.81s-54.81,24.54-54.81,54.81c0,1.32.06,2.63.16,3.93l.66-.65Z"/>
        <path d="M789.1,720.5h0c-.06.05-.04.03,0,0Z"/>
        <path class="cls-1" d="M815.35,718.94c-2.23.49-3.92,1.19-6.15,2.25l1.65-5.33c.39-.48.77-.97.93-1.45-1.63,1.15-2.04,3.21-2.87,4.96-.84.31-1.2.9-1.39,1.84l-1-.9c-.21-.19-.99-.04-1.14.2-.13.22-.57.79-.66.59l-.36-.73-.43-.63c-.06-.08-.15-.02-.2.07l-.4.81-1.57-3.3c-1.04,1.32.46,3.99.02,3.74l-.48-.27c-1.74-.99-3.88-1.85-5.64-2.03l.99,2.41c-1.7-.75-3.24-1.34-4.8-1.6l.22,1.85-2.65-1.15s-.22.16-.31.23l-.11.68-2.75-.21-.26.5c-.03.06-.09.06-.17.03l-2.33-.9-.45,1.15-.63-.87c-.12-.16-.64.42-.81.56l-2.84-1.18,1.27,1.22c-.26.12-.95.37-.85.57l.46.94-2.17-.66-.37.87-2.8-1.34,1.26,1.62c-2-.99-3.84-1.28-6.01-1.6l-1.78-.26-.79-6.3-.33-3.27c-.22,1.81-.11,3.64.11,5.56l.45,3.89-1.37.64,1.33.18c.38.05.73,1.79.55,1.85l-1.07.29c-.27-.15-.02,0,.15.08l1.52.66-1.59.7,1.64.7-2.87.17c-.11,0-.56.32-.46.35l.53.21.5.2c.09.03.03.24,0,.45l-1.95.2.57.57c.09.09-.42.47-.54.41l-1.46-.71c-.16-.08-.6.62-.7.47l-.6-.87-.41,1.22-1.66-.78c-.06.22-.28.88-.48.81l-.77-.25-.47.99-.24-1.04c-.04-.18-.58-.34-.69-.19l-.85,1.17-1.32-1.28-.03-.93-1.24.76.06,1.31c.03.72-.35,1.74-.63,1.98-.16-.84-.57-.93-.76-.4-.16.32-.47.87-.63.86-.22-.02-.16-.08-.82.11l-1.46-1.01c-.07-.03-.67.31-.58.44l.52.78c.24.36.63.86.69,1.19.09.57-1.68,2.2-3.27,1.43l-1.11.48c-.6.26-1.1.56-1.72.98-.83.24-2.14.15-3.31-.01l-1.01,1.73-5.07-1.73c-.83,1.74-2.25,2.08-3.82,1.35-.76-.35-1.72-1.27-1.57-2.17l.06-.35-9.61-.39c.28,1.54.29,3.18.04,4.74l-4.17-1.49c.75-1.21.62-2.32.44-3.41l-9.71-.39c0,.41,0,.83.06,1.27l-3.55.21c-1.8.11-3.18,1.32-3.74,3.04l-6.38-3.19-.89-2.38c-6.84-3.31-10.51-.07-11.38-.22-2.49-.43-3.13.67-3.41.34l-.9-1.06-.66,1.41-2.66-.34c-.03-1.23-.15-2.4-.31-3.55l-10.42-.13c.66,1.1-.62,2.67.72,3.73.03.01-.32.25-.38.17l-.35-.4c-1.63-1.88-1.64,1.05-6.34.67,2.38-.56,4.33-1.77,5.08-4.18l-10.44-.13c.44,1.08,1.17,2.12,2.3,3.13-1.7.4-4.51-1.18-4.65-2.85l-2.77-1.09,1.39-1.81-3.23-.81c-.9-.23-2.09-1.19-3.16-1.87.5-1.68,1.5-3.28,2.92-4.32,1.22-.89,2.56.06,3.73.99-.09-1.09-1.52-1.67-2.45-1.71-1.16-.06-2.26.64-3.42,1.47.13-1.52.02-2.51-1.89-3.68l2.91-2.94c-1.22.41-2.11,1.36-3.07,2.42l-.99-1.75.17,2.14-1.24-1.39-1.94,1.17-.06-1.87c-.46.38-.92.88-1.06.67l-.59-.83c2.76-.62,2.43-2.55,4.04-3.72-.67-.08-1.18.54-1.65,1.2l-.67.94c-.26.37-.73-.35-1.72.35-.11.08-.45.05-.46-.06l-.07-.81c0-.12-.45-.28-.5-.18l-.29.73-.3.75c-.08.21-.75-.46-.73-.74l.21-3.92-1.36-.57c-.05,1.51-.33,3.01-.65,4.46l-.77-2.16-.47,1.16h-.41s.27-3.42.27-3.42c-.21-.04-.64-.07-.64.06v.76c0,1.28-.15,2.48-1.5,2.84l.79-4.16-.27-.18-.32,1.06c-.62-2.27-.98-4.07-2.2-6-.28,2.85.88,5.04,1.78,7.6l-.9-.3.02,1.81-1.53-1.81.49-4.11h-.85c.25,1.16.16,2.41-.29,3.75-.97-1.43-1.41-2.52-2.54-3.45l2.24,4.36c.05.11,0,.59-.09.56l-.53-.19c-.34-.12-1-.2-1.51-.19l-5.31-5.15c.79,1.58,2.11,2.57,3.24,3.72l-.9.27c-.11.03.19.32.3.35l.73.16c0,.2-.12.69.05.83l1.02.8c-.82.14-1.7.04-2.55-.38.04-.13-.47.44-.33.56l.83.72-2.02-.13c-.16-1.41-2.42-2-2.41-2.01l-.47.38-.57-1.95-1.77.44,2.81-3.09-.48-.08-3.06,2.69c-.1.09-.48.27-.58.18l-.44-.38-.95.7c-.22.16-.84-.06-1.2-.16l-.4,1.16-1.42-1.79-.89,1.89-.11-5.06.81-1.21c-.7.28-1.22.8-1.93,1.36l-1.63,1.29-1.63-1.57-.21,1.93c-.99-1.62-1.51-2.74-3.01-4.06l.53,2.5-3.25-1.77-.16,1.54-3-1.86c-.9-.02-2.18-.5-2.64-1.33l2.21-3.97-4.03,2.19.2-4.5c-1.95-1.33-3.19-2.94-4.82-4.68.73,2.13,2.1,3.74,3.82,5.06v4.63c-.01.69.84,1.52.04,2.07-.09-.57-.3-1.47-.63-1.74l-2.03-1.64,1.13,1.94-2.22.96c.36.46.79.9.6,1.04l-.78.57c-.3.22-.75.72-.89,1.04-.13.31.4,1.14.72,1.27,2.48.97,3.8,3.74,2.63,6.28-.36.78-.06,1.48.92,2.08l-1.47,2.02c-.17.23-.32.58-.3.8.01.17.65.31.83.28l2.43-.39c.14.19-.05,1.11-.29,1.35l-2.77,2.71c-.31-1.11-.69-2.16-1.09-3.18l-10.15,2.36c.91.91.03,2.74,1.59,3.45.04,0-.25.32-.33.26l-.43-.31c-2.03-1.44-1.34,1.41-6,2.16,2.18-1.11,3.78-2.75,3.94-5.27l-10.17,2.36c.68.94,1.64,1.78,2.98,2.49-1.55.79-4.66-.07-5.2-1.66l-2.95-.4.92-2.09-3.33-.02c-.93,0-2.32-.66-3.51-1.07.08-1.75.68-3.55,1.8-4.89.97-1.16,2.5-.55,3.86.07-.34-1.04-1.87-1.26-2.79-1.08-1.14.22-2.04,1.16-2.97,2.24-.23-1.51-.58-2.44-2.71-3.12l2.13-3.55c-1.09.69-1.72,1.82-2.41,3.09l-1.38-1.46.67,2.04-1.53-1.06-1.6,1.6-.5-1.8c-.36.48-.68,1.07-.87.91l-.77-.66c2.54-1.26,1.75-3.06,3.04-4.57-.67.08-1.01.8-1.31,1.56l-.42,1.07c-.16.42-.8-.17-1.58.74-.09.1-.43.16-.46.05l-.26-.77c-.04-.11-.51-.17-.53-.05l-.11.78-.11.8c-.03.22-.83-.27-.88-.54l-.73-3.86-1.45-.23c.31,1.47.39,3.01.44,4.49l-1.26-1.92-.18,1.24-.4.1-.55-3.39c-.21,0-.64.08-.61.21l.18.74c.3,1.24.44,2.45-.78,3.11l-.23-4.23-.3-.11-.06,1.11c-1.14-2.06-1.92-3.72-3.57-5.3.4,2.83,2.05,4.68,3.54,6.96l-.94-.08.45,1.76-1.91-1.39-.5-4.11-.83.21c.52,1.06.73,2.3.61,3.71-1.28-1.16-1.97-2.11-3.29-2.74l3.22,3.7c.08.09.15.57.04.56l-.56-.06c-.36-.04-1.02.04-1.51.17l-6.38-3.74c1.14,1.35,2.66,2,4.03,2.84l-.81.47c-.1.06.26.27.37.27l.75-.02c.05.2.04.7.25.79l1.19.53c-.76.33-1.64.44-2.57.24,0-.13-.36.54-.19.62l.98.5-1.99.35c-.49-1.34-2.83-1.37-2.82-1.38l-.37.49-1.02-1.76-1.61.85,2-3.67-.49.03-2.33,3.34c-.08.11-.4.37-.52.31l-.52-.26-.75.91c-.17.21-.83.14-1.21.13l-.11,1.22-1.81-1.4-.42,2.05-1.31-4.89.5-1.37c-.61.44-.99,1.06-1.55,1.78l-1.27,1.64-1.96-1.13.26,1.93c-1.35-1.34-2.12-2.3-3.9-3.23l1.11,2.31-3.57-.94.21,1.53-3.36-1.09c-.88.19-2.24.03-2.88-.66l1.2-4.38-3.4,3.09-.88-4.42c-2.21-.83-3.8-2.1-5.79-3.39,1.21,1.9,2.93,3.13,4.92,4l1.09,4.5c.16.67,1.19,1.27.54,2-.22-.54-.64-1.35-1.03-1.54l-2.36-1.1,1.56,1.62-1.93,1.46c.46.36.98.69.83.87l-.62.74c-.24.29-.56.88-.61,1.22-.06.34.66,1.01,1,1.06,2.64.35,4.59,2.72,4.05,5.47-.16.84.3,1.46,1.39,1.8l-.94,2.31c-.11.26-.17.64-.1.85.05.16.7.14.87.07l2.26-.96c.18.15.21,1.09.04,1.38l-2.28,3.68c1.54-.06,3.08-.46,3.52.69.35,1.4-.16,3.44.84,4.54,1.03,1.12,2.9.36,3.93-.02l1.34.8c.47.28,1.65-1.7,3.37-1.31.61.14,1.37.97,1.93,1.62,1.35.33,2.85-.92,3.84-2.01,2.47.02,1.63,2.06,3.58,3.55.32.25.73.49,1,.54.68.11,2.39-2.25,3.56-1.83l2.88,1.02c.26.09.87.46.79.7l-.4,1.14c3.11.6,6.35.4,9.38-.88,1.07-.45,2.03-.29,3.11.19l2.95-.59c.88.97,1.96,1.52,3.25,1.85l3.13.8-.37.84c-.05.12.65.03.77.06l5.02,1.27c.66.17,1,.86,1,1.47l1.08.53c.23.11.2.76.19,1.18,2.46-.16,4.98-.22,7.39.12l.13,1.21c1.19.94,2.74,1.32,4.18,1.5.37.29,1.15.68,1.56.57.55-.14,1.06-.23,1.06,0,0,.17-.05.86.07.99.85.9,3.11,1.74,4.65,1.29,1.79-.53,1.64-3.54,4.53-2.54l5.98,2.08c2.77.96,6.16-.32,6.12-1.61-.04-1.15-2.81-.06-4-1.44.8-.23,1.63-.28,2.52-.19,2.9.28,5.6.15,8.49,0,1.45-.08,2.93,1.1,4.53.13-3.41-.99-6.78-1.38-10.36-1.33-1.25.02-2.43-.42-3.56-.88l-2.17-.45.07-.31,8.24.52c-2.85-.76-5.33-1.67-8.08-2.54l-3.32-1.05c3.96-1.96,8.1-2.57,12.39-1.93,5.92.89,14.37,1.81,19.49-.98-2.97-1.69-6.04-.61-7.76-2.91-1.26-.93-2.9-.96-4.47-.59-2.64-1.03-5.21-1.11-8.13-.82l4.55-1.19,5.61-1.5-1.71-.46c-.27-.07-.56-.88-.37-1.09l.78-.9.79-.91c.05-.06.16-.09.29-.11.48.85.21,2.09,1.25,3.39.25.32.59.65.84.76.63.27,2.85-1.61,3.89-.93l2.56,1.68c.23.15.74.66.6.87l-.66,1.01c2.88,1.33,6.07,1.91,9.32,1.38,1.14-.19,2.04.2,2.97.93l3.01.13c.62,1.15,1.54,1.94,2.72,2.57l2.85,1.53-.56.73c-.08.1.62.19.74.25l4.57,2.43c.6.32.77,1.07.62,1.67l.92.77c.2.17.01.78-.1,1.2,2.43.43,4.89.97,7.15,1.87l-.16,1.21c.93,1.2,2.35,1.93,3.7,2.46.29.37.96.93,1.38.93.56-.01,1.08.03,1.03.25-.04.17-.25.83-.16.98.61,1.07,2.6,2.43,4.21,2.36,1.86-.09,2.44-3.05,5-1.39l5.31,3.45c2.46,1.59,6.06,1.16,6.32-.11.24-1.13-2.71-.73-3.55-2.36.84-.03,1.65.12,2.49.41,2.75.96,5.4,1.48,8.24,2.02,1.43.27,2.59,1.76,4.36,1.21-3.07-1.77-6.25-2.96-9.75-3.76-1.22-.28-2.26-.98-3.25-1.7l-2-.95.14-.28,7.88,2.46c-2.59-1.41-4.77-2.89-7.24-4.39l-2.97-1.81c4.32-.96,8.48-.57,12.49,1.08,5.54,2.27,13.53,5.18,19.17,3.69-2.48-2.35-5.72-2.03-6.84-4.68-1.01-1.2-2.58-1.63-4.2-1.64-2.32-1.63-4.79-2.31-7.7-2.73l4.7-.07,5.81-.12-1.55-.85c-.25-.13-.33-.98-.1-1.15l.98-.69.98-.69c.23-.16.93.12,1.18.28l5.64,3.7c2.36,1.55,5.93.92,6.19-.07.41-1.56-3.31-.77-3.55-2.72l7.27,1.9c2.29.6,4.44.84,6.7,1.97l-2.54,1.68,11.96-1.81c-.65.63-1.48.97-2.34,1.22l-5.26,1.53c2.87.92,4.82-.73,7.38-1.06l-6.73,2.66c-.99.39-2.12,1.51-2.89,2.12l1.47.28c-1.8.55-3.17.84-4.84,1.85l7.24-.59c1.49-.12,3.08-.97,4.51-1.51l-2.58-.19c2.55-2.22,4.97-1.82,7.49-2.71l-2.33-.96c1.02-.82,2.1-1.26,3.26-1.05l5.5.99c.9.16,2.65-1.52,2.94-.52.07.25.04.58,0,1.19l3.05.4c.34.04,1.1.51,1.01.84l-.37,1.38h5.13c.38.37,1.11,1.17,1.52,1.23l6.02.88c.3.96.84.78,1.6,1.12l5.69,2.48.87,1.9,2.94.92c2.94.92,4.77-.22,6.48.21,1.8.46,2.72-.16,3.85-1.3l2.3-2.31,2.03-.38,3.08-.65.51-.9c.12-.21.92-.01,1.23-.06.97-.15,2.1-1.08,2.96-1.41l1.85-.7c.77,1,2.18.64,3.98,1.73l3.34,2.04c.34.33.52.52.02.05l-1.84.43,2.79,1.13c1.58.64,3.29,1.55,5.06,1.26.47-.72.04-1.98-.53-2.54v-.34s1.81.41,1.81.41l.24-2.16,3.37-.71-.53-1.36c-.22-.57,2.85.29,3.3-2,.55.33,1.32.79,1.61.56.25-.2.57-.89.67-1.2l.33-1.02s1.86.93,3.41-1.82c-.43-.27-1.09-.84-.97-1.08l1.24-2.52,2.01-1.6c-2.13-1.41-5.59-2.99-5.89-2.41l.33-.63c.88-1.69,5.14-2.63,5.07-4.48-.13-3.25-2.26-4.28-2.11-5.39.06-.43.7-1.02,1.09-1.46,1.63-1.85,1.31-4.89.04-6.79l-1.65-.46c1.51-.21,2.25.01,3.88.34-.91-1.26-1.97-1.94-3-3.08l-1.61-1.78c-.06-.07-.38-.24-.46-.28-.08-.04.22-.4.34-.45l5.16-2.44c.65.11.58-.07.05-.3ZM599.43,740.5c.81-.36,1.66-.32,2.2.6l-6.77-.04c1.24-1.06,2.72.26,4.57-.56ZM685.16,755.46c.87-.16,1.69.09,1.99,1.11l-6.56-1.65c1.45-.74,2.58.9,4.57.54ZM708.56,740.12l-1.78,1.12c.72.19,1.32.26,1.67.18l4.45-.98-1.96,2.69,5.16-.27c-1.64.73-4.01,1.21-5.74.55l-6.5-2.48c1.4-.95,2.93-1.16,4.69-.81ZM731.44,750.53c-1.67,1.13-3.5.81-4.81-.66-5.04-.85-10.06.08-14.86,2.2-2.77-1.33-5.54-2.44-8.62-3.17-1.72-.41-3.17-1.14-4.61-2.12l-1.76-.94.4-.21c2.62.64,4.92,2.05,7.86,2.49l-5.56-3.17-3.41-2.43c3.09.09,5.63,1.31,7.93,3.24l.91-1.05,6.28.85c1.35.18,3.1,1.41,4.48,1.29l7.93-.68,1.62,1.01c-2.34.39-4.09.76-6.19,1.62l5.73.19c5.17.17,8-1.63,10.29,1.15-1.51-.07-2.51,0-3.63.4ZM733.63,751.69l4.98-.98c-1.46,1.31-3.14,1.58-4.98.98ZM750.2,748.52c-.24-.41-.92-.88-1.79-1.17.59-1.34,2.98-1.42,4.2-.65l-2.41,1.83ZM772.15,723.74l-1.18.56-1.81-.37.99,1.83c-1.43-.52-1.82-1.91-2.11-3.55,1.8-.06,3.51.19,5.16,1.01l1.38.69-2.44-.16Z"/>
        <path d="M630.74,707.25c2.94-.98.16-2.98.39-6.02l1.83-24.47c.78-.14,1.59-.55,1.63-1.01.07-.76-.25-1.29-.81-1.79l-.45-2.19.91-11.88c1.36-1.82-.02-3.88.86-5.88.92-.83,1.36-1.52,1.84-2.67.51-1.22,1.32-2.75.8-4.06l-.64-1.64c2.73-2.07-.12-3.62.83-6.02l1.53-3.85c.49-1.24,1.83-2.07,1.56-3.66,1.12.87,2.84,1.52,3.31,2.95.38,1.14-.11,2.75-.25,4.04l1.42.81c-.96,1.67-.99,3.17-.8,5.06l-.54,3.15-.62,2.45c.12.31.38,1.11.41,1.61l.4,7.73c-.42.66-.94,1.52-1.11,2.14l-1.12,4.01c-.11.38.39,1.1.94,1.49-2.17,3.82-1.29,8.19,1.95,11.06-.49,1.68-.91,3.68.06,5.11l1.61,2.36c-.21.72-.33,1.39-.34,1.96-.78,1.19-1.15,2.22-.85,3.7.52,2.54.33,5.13.16,7.78-.31,5.06.87,10.06,4.12,13.96l1.82,1.52-1.65,7.24c-.63,2.79-1.04,5.29-.1,7.6l10.44.13c.08-.25.15-.49.21-.77.57.21.89.48,1.07.78l10.42.13c-.28-2.11-.71-4.16-1.18-6.39,1.02-.7,2.95-1.56,2.9-2.95l-.11-3.43c-.03-.98-1.01-1.46-2.05-1.87,0-.58.61-1.58,1.09-2.01,1.09-.98,1.05-1.86,1.13-3.15.51-8.74,3.64-14.65,3.76-19.25l.21-7.9.53-5.56,1.55.2c1.51-.27,3.49-1.56,3.81-3.27.46-2.46-.24-4.96-1.14-7.23-.36-.9-.09-1.5-.02-2.39.17-2.06-1.71-4.18-1.72-6.26l-.02-5.01-.45-3.05-.07-6.29c2.77-2.64.79-5.09-.44-7.91-.42-.97-.26-3.09-.25-4.09.92-.47,1.26-.85,1.95-1.78l.96,11.19,1.25,10.66c.43.19,1.26.06,1.63-.23-.92-5.94-1.52-11.72-2.06-17.72-.41-4.49-1.02-10.58-4.66-12.67l.1-5.17c.02-1.2.08-2.33.56-3.26l2.28,6.51c.74,2.1-1.04,4.9,2.51,7.06,1.39.85,1.57,2.23,1.95,3.64.2.74.66,1.93.51,2.6-.46,2.15.55,2.76,2.17,3.6,1.29.67,1.31,3.16.29,4.36l1.68,2.27c1.07,1.44.97,3.26-.69,4.22l-.99,2.84c.93.85,1.01,1.44.92,2.47l-.37,4.07c-.14,1.53.33,2.7,1.34,3.75l.76,2.79c.13.46,1.25.9,1.68.71.51-.23.82-1.07.75-1.62l-.14-1.05,5.5-1.1c.54-.11,1.75.64,1.79,1.21l.43,5.56,1.37,9.39c.57,3.86,1.47,7.62,1.23,11.54l-.17,2.77c-.31,5.12.16,9.82,1.79,14.73.42,1.28,1.29,3.55.54,4.64-1.03,1.49-.88,2.05-.58,3.73.38,2.06.3,4.31,1.41,6.23,1.06,1.82.92,3.64.31,5.67l.24,3.09c-1.2,1.69-1.99,3.5-2.02,5.59l9.71.39c-.26-1.55-.62-3.06,1.3-4.75,1.28,1.22,2.04,2.98,2.39,4.9l9.61.39.79-4.66,2.77-8.27c.61-1.82-.17-2.95-1.37-4.23-.86-.92-.78-3-.37-4.21,1.59-4.74,1.95-9.44,1.59-14.4l-.32-4.46c-.29-4.02-.26-7.95.69-11.87l2.51-10.38.66-2.28,2.21-6.83c.44-1.36.5-2.2.39-3.62l-.58-7.75c-.09-1.17,0-2.33-.5-3.68.09-.35.98-.79,1.71-.99l.35,15.51,1.4.2-.23-16.69c1.58-.86,2.36-2.11,1.7-3.75l1.64-2.93c2.11.86,3.65,1.85,5.81.61-.45,1.3-.22,1.8-.19,3.04l.12,5.34c0,.32.51,1.03.71,1.28l.27,13.35.32,6.81.89,25.64.25,5.81,1.23,26.44,1.24-.76-.87-25.67,1.43-.36c-.07-.83-.45-1.62-1.07-2.3l-.61-3.16-.89-25.99c-.02-.6.29-1.26.68-1.74.33-1.51-.12-3.06-.88-4.45l-.3-13.65c-.03-1.54.42-3.08.2-4.68-.11-1.41.09-2.71.52-3.96-.46-1.24-.67-2.74-.31-3.8.69-.09,1.27-.15,1.41-.41.11-.21.32-.77.36-1.01l.39-2.45c.08-.51.17-1.29.06-1.7-.11-.41-.9-.92-1.28-1.16l-.84-.55c-.18-.12.38-.65.5-.81l.45-.6c.27-.37-2.47-1.44-5.02.01-1.97-4.56-3.23-9.02-4.31-13.7-.75-3.24-1.73-6.24-3.6-8.97l.2-4.65c.05-1.19,2.15-4.8-.58-7.63l-.45.92c-1.3-1.92-.99-4.47-2.65-5.91-2.67-2.33-6.4-.63-7.36-3.09-1.42-3.65-1.18-6.9-6.6-8.89-4.56-1.67-9.89,2.8-11.39,8.31-1.15,4.2-2.91,7.66-5.88,11.07l2.68-2.13c-.41,1.56-1.01,3.3-2.11,4.35l-1.87,1.8,1.32-.55,3.59-.24c.47-.03.99-.91,1.19-1.59,1.29,3.68,2.05,4.81,6.25,6.03-.38-2.51-4.3-4.09-6.15-7.08.36-.2.69-.31.84-.2l.66.46-.3-1.19,1.73.21c-.18-.71-.25-1.35.02-1.49.23-.12.79.06,1,.25l2.88,2.73-3.03-.72c-.11,1.34,1.19,1.49,2.06,1.61l-.6,1.08,1.87,1.78.65-3.26,2.22-.25c-.5,1.59-.81,2.75-.65,4.18,4.9-3.87,8.22-3.19,13.56-1.04-1.7.14-3.34.01-4.77.43l-3.86,1.12,2.35-1.2c-2.11-.38-4.17-.37-6.11.37-1.23.47-1.42,1.99-1.36,3.33-.47.34-1.31.65-2.18.97l1.02.21-1.26.64,1.43.89-1.44,2.29-.95-.41c-.09-.04-.18.31-.12.4l.27.43.29.47c.06.1-.41.05-.51,0l-.87-.36c-.19-.08-.61.29-.81.35l-3.06.96.96-1.93-.65-4.53,1.69,4.14,2.09-.15c-2.57-2.62-4.15-5.66-5.21-9.05l-4.28.66c-3.18.49-5.11,3.2-6.07,6.24l-1.37,4.39c-1.28,4.08-1.32,8.32-2.15,12.64l-.88-4.44c-.32-1.63-.03-3.11-.9-4.6-1.02-1.74-1.24-3.76-1.9-5.7l-5.01-14.81c-1.51-4.46-4.47-8.12-8.86-9.15.95-.31,1.43-.7,1.87-1.33l1.23-1.74,1.06-1.5c.46.03,1.57,0,1.76-.36.17-.31.17-.98.07-1.35l-.74-2.74c1.38-1.5,1.73-3.41,1.62-5.42l2.11-.5-2.45-3.92-1.35-1.24-2-1.54c-.72-.55-1.42-1.05-1.82-1.69-1.53.1-1.42-1.56-4.28-.95l-4.81,1.02c-2.9,2.5-4.46,5.74-4.35,9.7l-.69.11c-.15.02-.26-.7-.39-.78l-2.73-1.83c-.81-.54-2.36-.56-2.87.17-.72,1.05-1.37,2.03-2.39,2.61-1.51.85-2.81,1.47-4.57,2.02l2.7-2.4c1.15-1.02,2.26-1.91,2.92-3.36-4.01.04-6.94,2.65-9.82,2.96l2.32-1.63c-1.78.1-3.53.86-4.67,2,.17.7-.35,1.02-.61,1.49l-3.49,6.2c-.74,1.29-.76,2.79-.08,4.09l-.76,8.43.13,1.91c-3.85,4.46-5.1,10.3-5.98,15.98-1.6.99-3.3,1.99-4.51,3.38-.85.98.18,2.38,1.19,2.73l.98,4.61c-2.14,7.05-3.92,13-3.51,20.47l-.79,1.77,1.29,2.51c-1.52,1.26-1.5,3.37-.74,5.17.44,1.04,1.18,1.28,1.84,1.83,1.02.85.72,3.01.37,4.15-.34,1.12.19,2.08.16,2.92-.1,3.72-.47,7.31-.73,10.93l-.4,5.52-1.61,25.06-.52,3.03c-.16.92.05,1.88.13,2.84.04.48.05.96.03,1.44l1.36.57.12-2.22ZM715.4,593.13c.89-.93,2.39-.76,2.31-2.55l-3.42,1.75-.13.71c-.02.11-.39-.09-.39-.2v-.53s-.55.31-.55.31c-.2.11,0,.79.09,1.12l-1.6,2.08-.41-1.08c1.14-2.79,2.98-4.76,5.66-6.27l.04.83,2.8-.96c-.63,2.13-2.03,4.49-4.4,4.79ZM737.41,639.95l-1.52-2.91c-.1-.19.3-.8.5-.9l2.11,2.76-1.09,1.06ZM737.33,615.51c1.36,1.92-.18,3.15.1,5.76l-1.61-.31,1.42-9.84c1.16,1.09,1.01,2.39.95,3.61l-.77-.25c-.17-.05-.19.89-.08,1.03ZM741.26,619.87l-1.48.63.05-.97c0-.19-.27-.26-.72-.47-.51-.9-.4-2.16-.42-3.35l-.05-2.37c2.19.88-.08,3.39,2.61,6.54ZM740.36,611.58c.2.16.14,1.07-.07,1.09-.67.07-1.81-1.3-2.37-2.66.86.34,1.83,1.07,2.44,1.57ZM737.34,601.67l.88,2.53,1.13,3.47-1.48.68,1.2.51c-.12.16-.68.48-.92.36-.24-.12-.68-.7-.73-1l-.64-4.27c-.18-1.17-1.1-2.41-1.53-3.69,1.04-.08,1.77.52,2.08,1.4ZM735.54,622.73c2.13-1.42,1.8,3.06.67,6.92l-1.41-.25.74-6.67ZM721.31,715.02c.13.75-.36,1.34-.89,1.73l-1.56,1.18-.62-5.31-.31-3.33c-.1-1.08-1.16-1.89-2.1-2.29.05-3.47-.26-6.9-1.08-10.29-.45-1.86.4-3.69.48-5.48.2-5.07.19-9.97.82-15.04l1.12-3.82c1.26-2.92,1.49-5.73,2.1-9.05l.77,7.89c.53,5.43.8,10.66.13,16.07-.7,5.67,1.87,9.98,1.02,17.21-.42,3.59-.51,6.91.13,10.52ZM725.97,604.33c1.28-.4,2.58-.9,3.82-.65l-8.3,2.36c1.46-.98,2.97-1.23,4.48-1.71ZM722.06,607.8l5.08-1.7-1.56,1.47-4.57,1.39c.11-.64.55-1,1.05-1.16ZM719.95,609.15c2.01,4.46,1.29,9.35,2.75,14.26-.18.04-.64.02-.56.11l.67.81.03,2.03c0,.14-.5.52-.4.63l.63.69h-1.46c-.46-1.78-.44-3.4.63-4.96l-1.47.23-.67-4.45-.64-6,.52-3.34ZM717.11,612.64l1.16-.44c-.11,2.99.24,5.71-1.16,8.67l-.25-6.95c-.01-.31-.02-1.18.26-1.28ZM719.23,634.69c.31.03,1.12.62,1.46,1.09l-3.23,5.54c-.19.32-.33,1.15-.62,1.15l-1.5.02,3.88-7.8ZM711.08,606.36c0-.52.14-.88.49-1.2l.29,6.14c-.18.07-.82-.36-.82-.64l.04-4.3ZM714.51,623.82c.24.02.98.37.9.56l-.46,1.25-5-.1-.41-2.21,4.96.51ZM705.78,621.14l.78,1.6c-.62,2.74-1.05,5.29-1.08,8.05l3.71-2.85-.32-1.81c-.03-.19-.03-.64-.02-.81.02-.22.71-.21.76,0,.11.56.4,1.71.72,2.14.38.51,1.61.63,2.46.66l-.26.85,1.29.43,2.45-.29-.23,3.88-2.52,2.56.02-2.77-1.59.44,1.36-2.8c-.44-.15-1.4-.14-1.67.15-.61,2.34-4.28.78-7.89,3.44.16-4.6.71-8.62,2.04-12.89ZM704.95,635.78l.9,1.59,1.18-1.29c-.13,1.25-.44,2-.99,3.23l-1.72-2.04-.21,2.35c-1.03-1.41-.33-2.97.84-3.84ZM702.23,637.89c.83,1.75.1,2.92.01,4.8l.86-1.1c.26.73.25,1.52,0,2.39l-1.18,3.99c.56.69.4.92.29,1.7l-1.13,8.19-1.21-3.13,1.11-.45c.24-.1-.18-.79-.37-.96l-.84-.76c-.16-.15,1.74-1.93-1.69-4.8l4.14-9.87ZM662.1,720.67c-.88.51-1.34,1.46-.9,2.53l.13.98c.03.23-.98.1-1.1-.11-.89-2.02-1.24-5.38-.47-7.94,1.61.81,2.74,2.61,2.34,4.53ZM663.77,692.26l-1.56,8.28c-1.87-3.57-.91-5.91-2.29-7.38-.35-.37-.32-1.51-.17-1.95.51-1.54.11-2.63-.22-4.17-.25-1.17.61-3.58,1.52-4.43.97-.9,1.81-1.42,1.63-2.98-.26-2.15-.37-4.43-.02-6.6.18-1.08.03-1.96.01-3.05l-.07-4.66c1.18,2.65.84,5.36.3,8.2.33.98.67,2.11.2,3.15-.45,1.01.1,2.1.18,3.05.19,2.55.2,5,.81,7.49.44,1.79.02,3.3-.31,5.05ZM664,606.18c-.15.14-.82,0-.8-.21l.31-2.95.79,2.09c.09.24-.14.92-.29,1.07ZM665.1,602.66l-.89-1.85c-.51-1.07-.07-2.02,1.07-2.39l-1.01-.8.08-2.19c.5.27,1.21.69,1.43.92l-.69,6.32ZM664.83,584.21l.64,3.27-.69,1.03.65-.18c.16-.04.64,0,.49.02-.24.6-.37,1.22-.18,1.54l.34.58c.09.15-.31.57-.45.47l-.65-.43c-.16-.11-.79-.4-.81-.2l-.15,1.07c-.04.26.92.26,1.17.16l.6-.23c.1-.04.35-.09.33,0l-.24.96-2.38-.51-.38-4.97-.6-2.27,2.32-.32ZM663.23,593.94c1.46,1.67-.66,3.09.31,5.28.22.5-.65,1.58-.7,2.14l-.34,3.57-1.71-.03c.64-3.81,1.31-7.34,2.44-10.95ZM660.74,606.37c.22-.21,1.27.04,1.24.17-.85,2.41-1.27,4.36-1.51,7.04l-1.61-.11c.12-2.42,1.13-6.39,1.88-7.11ZM643.73,608.74l-.34-2.26-.98,1.07c1.33-4.13-.46-8.31,1.6-8.45l-.12,4.96c-.04,1.54.44,3.04-.17,4.68ZM646.7,614.85c-.77-.98-1.24-4.12-1.05-5.12.7-3.62-.13-6.89-.76-10.47-.14-.81.23-2.38.3-3.45.33.94.63,2.11.75,3.26l.96,9.09c.04.42-.39,1.3-.59,1.58.65.93.83,2.06.33,3.12.41.5,1.23,1.41.06,1.98ZM644.94,591.78l-1.82-.07.89-2.74c.03-.09,0-.66,0-.57,0,.1.47-.1.5-.19l.93-3.06c.14-.44,1.34-.73,1.55-.61l-1.41,4.59c-.21.69-.42.99-.4,1.82.01.59-.18,1.31-.37,2.18l-2.19-.33,2.33-1.02ZM641.87,596.96l1.11-1.68.4-.65c.08-.14.42-.14.57-.08.2.07.27.82.15,1.02l-1.31,2.36c-.11.2-.65.65-.84.54l-.92-.55.86-.13c.15-.02.57,0,.49-.1l-.52-.74ZM640.42,609.35l1.85-.57c-.09.44-.51,1.39-.85,1.75l-1.76,1.88.02-.79c0-.13.06-.27-.04-.26l-.92.09c.1-.12.77-.73.56-.89l-1.15-.87,2.28-.34Z"/>
      </g>
      <text class="cls-2" transform="translate(178.74 874.88)"><tspan class="cls-4" x="0" y="0">T</tspan><tspan class="cls-5" x="50.37" y="0">r</tspan><tspan x="85.09" y="0">ails &amp; </tspan><tspan class="cls-6" x="335.93" y="0">M</tspan><tspan x="415.32" y="0">emoirs</tspan></text>
    </g>
  </g>
</svg>